#!OML:ASF X:\für Bonn\!DataBase\2005_08_12_Daniel\c3d\Daniel.ASF
:FULLY-SPECIFIED
:DEGREES
3021
root -3.15339 6.80913 -2.83977 313.499 -82.1041 -348.232
lowerback 57.1714 -3.84806 0.520954
upperback 6.2622 -6.5902 -2.26832
thorax -14.6986 -3.52307 0.666583
lowerneck 6.23592 2.44414 -1.59697
upperneck -2.27037 3.04603 -1.78258
head -1.76171 1.57222 -0.390967
rclavicle -1.32689e-014 -3.37934e-015
rhumerus 67.2224 9.34347 -72.5521
rradius 15.0181
rwrist 37.7807
rhand -22.68 15.0844
rfingers 7.12502
rthumb 3.75215 -14.8624
lclavicle -1.32689e-014 -3.37934e-015
lhumerus 67.7763 -6.58469 67.6346
lradius 15.4537
lwrist -42.442
lhand -22.8884 1.13116
lfingers 7.12502
lthumb 3.55088 31.0813
rfemur 14.7181 -43.6868 -136.418
rtibia 153.652
rfoot -85.4742 72.3625
rtoes -2.52037
lfemur -50.943 57.2961 38.4895
ltibia 150.961
lfoot -11.1163 -66.9066
ltoes 7.11369
3022
root -3.17305 6.66078 -2.83784 313.49 -82.053 -348.742
lowerback 57.4277 -3.87196 0.561443
upperback 6.46022 -6.63466 -2.2803
thorax -14.4842 -3.56742 0.651588
lowerneck 6.11727 2.41084 -1.49638
upperneck -2.50596 3.00522 -1.89587
head -1.81398 1.55635 -0.442867
rclavicle 2.15681e-014 -3.47873e-014
rhumerus 67.169 9.30247 -72.6084
rradius 15.1631
rwrist 38.0223
rhand -23.0484 15.053
rfingers 7.12502
rthumb 3.3964 -14.8996
lclavicle 2.15681e-014 -3.47873e-014
lhumerus 67.6718 -6.36846 68.5117
lradius 15.5045
lwrist -43.6893
lhand -22.9172 0.916252
lfingers 7.12502
lthumb 3.52302 30.8669
rfemur 12.9327 -43.1288 -137.906
rtibia 154.726
rfoot -89.2879 72.7231
rtoes -2.64148
lfemur -49.3732 58.9857 42.6429
ltibia 152.028
lfoot -9.9781 -68.7742
ltoes 7.33999
3023
root -3.19033 6.52515 -2.83556 313.232 -82.0021 -348.852
lowerback 57.558 -3.86217 0.54813
upperback 6.64181 -6.66253 -2.28468
thorax -14.2761 -3.59989 0.659296
lowerneck 6.04239 2.37118 -1.411
upperneck -2.76557 2.95119 -2.03189
head -1.88217 1.53481 -0.500017
rclavicle -4.50744e-014 -1.0138e-014
rhumerus 67.1206 9.20277 -72.8499
rradius 15.2665
rwrist 38.5622
rhand -23.3814 15.0472
rfingers 7.12502
rthumb 3.07475 -14.9104
lclavicle -4.50744e-014 -1.0138e-014
lhumerus 67.5585 -6.02788 69.8435
lradius 15.4836
lwrist -45.2654
lhand -22.8843 0.621414
lfingers 7.12502
lthumb 3.55487 30.5715
rfemur 11.1477 -42.8139 -139.298
rtibia 155.732
rfoot -93.0964 73.347
rtoes -2.54432
lfemur -48.0253 60.4824 46.3696
ltibia 153.002
lfoot -8.52985 -70.4009
ltoes 7.48544
3024
root -3.20705 6.39947 -2.83338 313.089 -81.9533 -349.021
lowerback 57.6257 -3.86149 0.539858
upperback 6.83006 -6.69631 -2.29191
thorax -14.057 -3.63471 0.663112
lowerneck 6.04051 2.34666 -1.32769
upperneck -3.08775 2.91482 -2.14138
head -1.98473 1.52248 -0.55124
rclavicle -4.54223e-014 -5.96354e-016
rhumerus 67.1418 9.13472 -72.9921
rradius 15.3547
rwrist 38.9906
rhand -23.5823 14.9744
rfingers 7.12502
rthumb 2.88079 -14.9859
lclavicle -4.54223e-014 -5.96354e-016
lhumerus 67.4702 -5.73326 70.9709
lradius 15.5044
lwrist -46.5041
lhand -22.9085 0.357411
lfingers 7.12502
lthumb 3.5315 30.3079
rfemur 9.33035 -42.635 -140.493
rtibia 156.662
rfoot -96.9574 74.0122
rtoes -2.5171
lfemur -46.8174 61.8152 49.8503
ltibia 153.923
lfoot -7.16804 -71.8301
ltoes 7.51946
3025
root -3.22364 6.28353 -2.83111 313.006 -81.9001 -349.204
lowerback 57.657 -3.86784 0.535914
upperback 7.00055 -6.73181 -2.30085
thorax -13.8575 -3.66792 0.664131
lowerneck 6.17176 2.32518 -1.27108
upperneck -3.44411 2.87684 -2.22858
head -2.12406 1.51001 -0.593689
rclavicle 3.97569e-016 3.06128e-014
rhumerus 67.1951 9.11163 -72.9096
rradius 15.4193
rwrist 39.1964
rhand -23.658 14.9067
rfingers 7.12502
rthumb 2.80768 -15.0545
lclavicle 3.97569e-016 3.06128e-014
lhumerus 67.3784 -5.51287 71.8829
lradius 15.5379
lwrist -47.3189
lhand -22.9706 0.158258
lfingers 7.12502
lthumb 3.47153 30.1097
rfemur 7.55863 -42.4571 -141.642
rtibia 157.531
rfoot -101.177 74.5383
rtoes -2.49747
lfemur -45.6461 63.0042 53.1501
ltibia 154.774
lfoot -6.06764 -73.1222
ltoes 7.45251
